Coordinates
version=1
nRows=17
nColumns=38
inDegrees=yes

Units are S.I. units (second, meters, Newtons, ...)
Angles are in degrees.

endheader
time	pelvis_tilt	pelvis_list	pelvis_rotation	pelvis_tx	pelvis_ty	pelvis_tz	hip_flexion_r	hip_adduction_r	hip_rotation_r	knee_angle_r	ankle_angle_r	subtalar_angle_r	mtp_angle_r	hip_flexion_l	hip_adduction_l	hip_rotation_l	knee_angle_l	ankle_angle_l	subtalar_angle_l	mtp_angle_l	lumbar_extension	lumbar_bending	lumbar_rotation	arm_flex_r	arm_add_r	arm_rot_r	elbow_flex_r	pro_sup_r	wrist_flex_r	wrist_dev_r	arm_flex_l	arm_add_l	arm_rot_l	elbow_flex_l	pro_sup_l	wrist_flex_l	wrist_dev_l
      2.65000000	      5.06913537	     -2.81188380	      0.04905646	     -0.01154580	      0.87157216	      2.60576398	     13.62473751	      2.17072364	    -11.09783453	    -14.62689692	     -4.53985353	      0.00000000	      0.00000000	    -10.83605440	     -4.75851279	     -3.58284372	    -31.54589824	     -3.70463184	      0.00000000	      0.00000000	     -8.66294508	      2.87543694	     -2.30723641	     -4.53577500	    -10.95472278	     -4.28484537	      1.15996629	    105.94111388	      0.00000000	      0.00000000	     13.13796983	    -16.51961165	      0.07355080	     47.76154603	     93.35112293	      0.00000000	      0.00000000
      2.66000000	      5.04735023	     -3.18617351	      0.17425081	     -0.01084727	      0.87240080	      2.60799725	     13.28010334	      2.69726468	    -10.83905303	    -15.16048893	     -3.64681478	      0.00000000	      0.00000000	     -9.32556677	     -5.39574067	     -3.12955590	    -34.63071383	     -6.47571878	      0.00000000	      0.00000000	     -8.56900471	      3.21147475	     -2.13261436	     -3.93564290	    -10.84274488	     -4.16731384	      1.26607919	    106.47236690	      0.00000000	      0.00000000	     12.47087210	    -16.27535883	      0.07560750	     47.91979270	     93.42215746	      0.00000000	      0.00000000
      2.67000000	      4.99432637	     -3.54607621	      0.30754397	     -0.01036770	      0.87313853	      2.61011868	     12.89400942	      3.20818054	    -10.61691350	    -15.53508206	     -2.83111511	      0.00000000	      0.00000000	     -7.61104512	     -5.99149772	     -2.59866320	    -37.87538377	     -9.50613510	      0.00000000	      0.00000000	     -8.47784128	      3.53038042	     -1.93320376	     -3.27924261	    -10.72492427	     -4.01717898	      1.44221144	    106.87281582	      0.00000000	      0.00000000	     11.86651213	    -16.00814366	      0.13269414	     47.93235305	     93.49443953	      0.00000000	      0.00000000
      2.68000000	      4.91616655	     -3.88207880	      0.44758957	     -0.01020769	      0.87378767	      2.61206398	     12.46064840	      3.68797240	    -10.49586619	    -15.72632977	     -2.11911769	      0.00000000	      0.00000000	     -5.72281877	     -6.53250484	     -1.99446476	    -41.27842168	    -12.64166428	      0.00000000	      0.00000000	     -8.40035325	      3.82962138	     -1.70931887	     -2.57128409	    -10.61033244	     -3.82951065	      1.69830522	    107.08390321	      0.00000000	      0.00000000	     11.32328751	    -15.71624125	      0.23897920	     47.80717066	     93.57355038	      0.00000000	      0.00000000
      2.69000000	      4.82537918	     -4.19024060	      0.60218796	     -0.01037707	      0.87440788	      2.61382868	     11.97643214	      4.12663033	    -10.51404969	    -15.74191435	     -1.50496762	      0.00000000	      0.00000000	     -3.69007601	     -6.99710311	     -1.33653768	    -44.79742698	    -15.64862963	      0.00000000	      0.00000000	     -8.35022620	      4.10592842	     -1.46607683	     -1.81457768	    -10.50686252	     -3.60514492	      2.03869303	    107.06358624	      0.00000000	      0.00000000	     10.83593616	    -15.40502370	      0.39339475	     47.54553289	     93.66069988	      0.00000000	      0.00000000
      2.70000000	      4.73960920	     -4.47364895	      0.78127318	     -0.01072164	      0.87495556	      2.61542334	     11.43916308	      4.52177933	    -10.67200667	    -15.61635333	     -0.96487241	      0.00000000	      0.00000000	     -1.54927534	     -7.36749990	     -0.65737392	    -48.34088236	    -18.22577182	      0.00000000	      0.00000000	     -8.33622928	      4.35997151	     -1.21865339	     -1.01418343	    -10.41872810	     -3.34949459	      2.45934979	    106.79206585	      0.00000000	      0.00000000	     10.40272250	    -15.08016209	      0.59891309	     47.14213829	     93.75198827	      0.00000000	      0.00000000
      2.71000000	      4.67480321	     -4.73307020	      0.99285101	     -0.01122811	      0.87534587	      2.61677523	     10.85441105	      4.87302984	    -10.93642155	    -15.39761705	     -0.47060663	      0.00000000	      0.00000000	      0.64258886	     -7.64879564	      0.00405595	    -51.79155051	    -20.04729114	      0.00000000	      0.00000000	     -8.36099500	      4.59500253	     -0.98608549	     -0.17586087	    -10.34686508	     -3.07094964	      2.94866313	    106.27494608	      0.00000000	      0.00000000	     10.02360295	    -14.74429330	      0.85832987	     46.58334814	     93.84016784	      0.00000000	      0.00000000
      2.72000000	      4.63717771	     -4.96089483	      1.24464674	     -0.01195347	      0.87561887	      2.61785514	     10.23539667	      5.17897492	    -11.25626171	    -15.13419016	      0.00193725	      0.00000000	      0.00000000	      2.81208538	     -7.86566627	      0.60735589	    -55.03861345	    -20.84032141	      0.00000000	      0.00000000	     -8.42650178	      4.80895383	     -0.77899018	      0.69822903	    -10.28932040	     -2.77962370	      3.49044494	    105.54260252	      0.00000000	      0.00000000	      9.69020816	    -14.39954644	      1.17108699	     45.84516970	     93.91989529	      0.00000000	      0.00000000
      2.73000000	      4.62479897	     -5.14714497	      1.53702066	     -0.01281983	      0.87590436	      2.61871743	      9.59344325	      5.43752595	    -11.58235291	    -14.86703839	      0.46960321	      0.00000000	      0.00000000	      4.89410569	     -8.03568118	      1.11789483	    -57.99310804	    -20.47806398	      0.00000000	      0.00000000	     -8.53387904	      4.98984679	     -0.59965678	      1.61077784	    -10.23939954	     -2.48561686	      4.06661537	    104.64652626	      0.00000000	      0.00000000	      9.38912386	    -14.04806921	      1.53533341	     44.90299339	     93.99466404	      0.00000000	      0.00000000
      2.74000000	      4.63680283	     -5.28294588	      1.85239808	     -0.01369840	      0.87632497	      2.61948977	      8.93285565	      5.64474751	    -11.88055639	    -14.62299112	      0.94188721	      0.00000000	      0.00000000	      6.85507569	     -8.14940306	      1.52117686	    -60.58506908	    -19.04421930	      0.00000000	      0.00000000	     -8.67517191	      5.12045526	     -0.44992249	      2.56705980	    -10.18719134	     -2.19664029	      4.65885380	    103.65326513	      0.00000000	      0.00000000	      9.11736341	    -13.69400559	      1.95052453	     43.74793499	     94.08025107	      0.00000000	      0.00000000
      2.75000000	      4.67236163	     -5.35516877	      2.16172213	     -0.01457237	      0.87692790	      2.62030008	      8.25470621	      5.79358975	    -12.13478375	    -14.40968518	      1.42100677	      0.00000000	      0.00000000	      8.69366931	     -8.17488314	      1.83459409	    -62.75943237	    -16.82507330	      0.00000000	      0.00000000	     -8.83122358	      5.18694388	     -0.32830621	      3.57097854	    -10.12493409	     -1.91597988	      5.24989456	    102.63618457	      0.00000000	      0.00000000	      8.88132075	    -13.35072231	      2.41536652	     42.38908340	     94.20013687	      0.00000000	      0.00000000
      2.76000000	      4.72019972	     -5.34904483	      2.44131935	     -0.01551300	      0.87767255	      2.62109264	      7.56395777	      5.87445417	    -12.34288830	    -14.21508214	      1.90129866	      0.00000000	      0.00000000	     10.42165925	     -8.07667918	      2.09981343	    -64.48128884	    -14.22248087	      0.00000000	      0.00000000	     -8.98216145	      5.18068045	     -0.22291018	      4.62178696	    -10.04997170	     -1.64156963	      5.82534440	    101.66590195	      0.00000000	      0.00000000	      8.67707852	    -13.03845121	      2.92544280	     40.84090281	     94.37393238	      0.00000000	      0.00000000
      2.77000000	      4.75783489	     -5.26007565	      2.67746956	     -0.01647236	      0.87850416	      2.62179428	      6.87099428	      5.87931127	    -12.51061636	    -14.01352104	      2.36902977	      0.00000000	      0.00000000	     12.04473665	     -7.83458774	      2.35629028	    -65.74341467	    -11.62771023	      0.00000000	      0.00000000	     -9.11692564	      5.09173911	     -0.11696638	      5.71500191	     -9.96365133	     -1.36640073	      6.37652099	    100.80071473	      0.00000000	      0.00000000	      8.48238688	    -12.76521012	      3.47535312	     39.11638557	     94.60550961	      0.00000000	      0.00000000
      2.78000000	      4.76493248	     -5.09624429	      2.85917356	     -0.01737583	      0.87938973	      2.62249023	      6.18221665	      5.80770972	    -12.64623202	    -13.77773223	      2.80416118	      0.00000000	      0.00000000	     13.55904144	     -7.45463632	      2.61564559	    -66.56270854	     -9.31607231	      0.00000000	      0.00000000	     -9.23063437	      4.90936884	      0.00087760	      6.84541373	     -9.86645667	     -1.07952421	      6.90245133	    100.07899059	      0.00000000	      0.00000000	      8.27337921	    -12.51769367	      4.05981984	     37.23444132	     94.87826096	      0.00000000	      0.00000000
      2.79000000	      4.73657946	     -4.86837525	      2.97526042	     -0.01825209	      0.88032695	      2.62321955	      5.49348012	      5.66909599	    -12.75535661	    -13.48926914	      3.18477719	      0.00000000	      0.00000000	     14.95794719	     -6.96899063	      2.85498544	    -66.96583935	     -7.40385168	      0.00000000	      0.00000000	     -9.31995762	      4.63300688	      0.13642406	      8.00668158	     -9.75378610	     -0.76748013	      7.40854740	     99.51481585	      0.00000000	      0.00000000	      8.04119377	    -12.27824300	      4.66958910	     35.22756492	     95.15988541	      0.00000000	      0.00000000
      2.80000000	      4.68334949	     -4.58668594	      3.01967115	     -0.01909762	      0.88134230	      2.62394027	      4.79685117	      5.47966152	    -12.83607908	    -13.14279287	      3.49411322	      0.00000000	      0.00000000	     16.23614384	     -6.42559479	      3.03140736	    -66.97719434	     -5.87076624	      0.00000000	      0.00000000	     -9.38678713	      4.27610521	      0.29378213	      9.18904182	     -9.61863584	     -0.41692245	      7.90348938	     99.09689907	      0.00000000	      0.00000000	      7.78543554	    -12.04043475	      5.28923343	     33.13829561	     95.41324720	      0.00000000	      0.00000000
      2.81000000	      4.62243014	     -4.26663866	      2.99678390	     -0.01989778	      0.88239363	      2.62467918	      4.08929867	      5.25739955	    -12.87731295	    -12.74817185	      3.72902282	      0.00000000	      0.00000000	     17.39103587	     -5.87389035	      3.10639596	    -66.61509420	     -4.62054717	      0.00000000	      0.00000000	     -9.44036277	      3.85945370	      0.47437667	     10.38007185	     -9.45779434	     -0.01744990	      8.39775569	     98.79132435	      0.00000000	      0.00000000	      7.49900736	    -11.80699529	      5.89951299	     31.01036735	     95.60830483	      0.00000000	      0.00000000
